<?xml version="1.0" encoding="UTF-8"?>
<svg id="Layer_2" data-name="Layer 2" xmlns="http://www.w3.org/2000/svg" viewBox="0 0 512 512">
  <defs>
    <style>
      .cls-1 {
        fill: #ffd100;
      }

      .cls-2 {
        fill: #231f20;
      }
    </style>
  </defs>
  <g id="Mongoose_copy_7" data-name="Mongoose copy 7">
    <g>
      <path class="cls-1" d="M490.07.14c-.7-.29-1.5-.13-2.03.4L2.42,508.82c-.53.53-.69,1.33-.4,2.03.29.7.97,1.15,1.72,1.15h485.62c1.03,0,1.86-.83,1.86-1.86V1.86c0-.75-.45-1.43-1.15-1.72Z"/>
      <g>
        <g>
          <path class="cls-2" d="M1.87,426.97L63.65,75.96h149.39c49.05,0,83.58,8.7,103.62,26.11,20.02,17.41,30.05,44.84,30.05,82.28,0,19.47-2.24,41.94-6.74,67.39-7.12,40.44-17.51,73.57-31.17,99.41-13.67,25.83-32.95,44.93-57.85,57.29-24.9,12.35-58.13,18.53-99.69,18.53H1.87ZM124.3,337.11h44.37c12.35,0,22.55-1.49,30.61-4.49,8.05-2.99,13.38-11.42,16.01-25.27l19.66-111.76c.37-1.87.56-3.46.56-4.77v-4.21c0-9.73-3.47-15.63-10.39-17.69-6.93-2.05-15.82-3.09-26.68-3.09h-44.37l-29.77,171.29Z"/>
          <path class="cls-1" d="M151.26,428.84H1.87c-.55,0-1.08-.24-1.43-.67s-.51-.98-.41-1.53L61.81,75.63c.16-.9.93-1.55,1.84-1.55h149.39c49.28,0,84.56,8.94,104.85,26.57,20.36,17.71,30.69,45.86,30.69,83.69,0,19.5-2.28,42.28-6.77,67.72-7.12,40.44-17.67,74.07-31.36,99.96-13.79,26.07-33.53,45.61-58.67,58.09-25.05,12.43-58.87,18.73-100.52,18.73ZM4.1,425.09h147.16c41.07,0,74.33-6.17,98.85-18.34,24.42-12.12,43.6-31.12,57.02-56.48,13.51-25.54,23.93-58.8,30.98-98.86,4.45-25.23,6.71-47.79,6.71-67.07,0-36.69-9.89-63.9-29.4-80.86-19.59-17.02-54.04-25.66-102.39-25.66H65.22L4.1,425.09ZM168.67,338.98h-44.37c-.55,0-1.08-.24-1.43-.67-.36-.42-.51-.98-.41-1.53l29.77-171.29c.16-.9.93-1.55,1.84-1.55h44.37c10.96,0,20.11,1.07,27.21,3.17,7.78,2.32,11.73,8.88,11.73,19.49v4.21c0,1.42-.2,3.1-.6,5.13l-19.65,111.72c-2.75,14.5-8.53,23.48-17.2,26.7-8.21,3.06-18.73,4.61-31.26,4.61ZM126.53,335.24h42.14c12.08,0,22.16-1.47,29.95-4.37,7.35-2.73,12.34-10.76,14.82-23.87l19.65-111.74c.36-1.81.53-3.29.53-4.45v-4.21c0-8.88-2.96-14.08-9.05-15.9-6.75-2-15.54-3.01-26.14-3.01h-42.79l-29.11,167.55Z"/>
        </g>
        <g>
          <path class="cls-2" d="M317.49,402.26c0,8.62,1.49,16.29,4.49,23.03l-233.63-25.27h229.14v2.25ZM337.15,345.53c-6.37,6.37-11.23,14.42-14.6,24.15l-224.65-24.15h239.25ZM345.01,316.89l-237.56-25.27h240.37l-2.81,25.27ZM350.63,262.97l-233.63-25.27h236.44l-2.81,25.27ZM356.81,209.06l-230.26-25.27h233.07l-2.81,25.27ZM362.42,155.14l-226.33-25.27h229.14l-2.81,25.27ZM334.34,402.26c0-22.09,5.99-37.43,17.97-46.05,11.98-8.61,29.2-12.92,51.67-12.92,19.84,0,33.6,2.44,41.28,7.3,7.67,4.87,11.51,12.36,11.51,22.46,0,20.6-4.87,35.38-14.6,44.37-9.74,8.99-27.71,13.48-53.92,13.48-20.59,0-34.73-2.25-42.4-6.74-7.68-4.49-11.51-11.79-11.51-21.9ZM450.6,331.49h-90.42l26.4-240.37c.75-4.12,2.81-7.67,6.18-10.67,3.37-2.99,8.98-4.49,16.85-4.49h83.12c11.6,0,17.41,3.75,17.41,11.23,0,1.88-.19,3.19-.56,3.93l-58.97,240.37Z"/>
          <g>
            <path class="cls-1" d="M126.34,185.65l230.26,25.27c.07,0,.14.01.21.01.94,0,1.75-.71,1.86-1.67l2.81-25.27c.06-.53-.11-1.06-.47-1.46s-.86-.62-1.39-.62H126.54c-.99,0-1.81.78-1.87,1.77-.05.99.68,1.85,1.66,1.96ZM357.52,185.66l-2.37,21.34-194.39-21.34h196.76Z"/>
            <path class="cls-1" d="M135.88,131.73l226.33,25.27c.07,0,.14.01.21.01.42,0,.84-.14,1.17-.41.39-.31.64-.76.69-1.26l2.81-25.27c.06-.53-.11-1.06-.47-1.46s-.86-.62-1.39-.62h-229.14c-.99,0-1.81.78-1.87,1.77-.06.99.67,1.85,1.66,1.96ZM363.14,131.74l-2.37,21.33-191.04-21.33h193.41Z"/>
            <path class="cls-1" d="M338.88,344.82c-.29-.7-.97-1.16-1.73-1.16H97.9c-1,0-1.82.78-1.87,1.77-.05.99.68,1.85,1.67,1.96l224.65,24.15c.07,0,.13.01.2.01.79,0,1.5-.5,1.77-1.26,3.26-9.42,8.02-17.31,14.16-23.44.54-.54.7-1.34.41-2.04ZM321.28,367.66l-188.45-20.26h200.04c-4.84,5.66-8.72,12.45-11.59,20.26Z"/>
            <path class="cls-1" d="M492.72,74.08h-83.12c-8.41,0-14.33,1.62-18.09,4.97-3.68,3.28-5.96,7.22-6.78,11.74,0,.04-.01.09-.02.13l-26.4,240.37c-.06.53.11,1.06.47,1.45.36.4.86.62,1.39.62h90.42c.86,0,1.61-.59,1.82-1.43l58.93-240.2c.45-1.03.66-2.49.66-4.55,0-5.98-3.35-13.1-19.28-13.1ZM507.89,90.29c-.06.12-.11.25-.14.38l-58.62,238.94h-86.86l26.16-238.23c.68-3.69,2.51-6.82,5.57-9.54,3-2.67,8.25-4.02,15.61-4.02h83.12c15.54,0,15.54,7.05,15.54,9.36,0,2.19-.28,2.93-.37,3.1Z"/>
            <path class="cls-1" d="M116.8,239.56l233.63,25.27c.07,0,.14.01.2.01.94,0,1.75-.71,1.86-1.67l2.81-25.27c.06-.53-.11-1.06-.47-1.46s-.86-.62-1.39-.62H117c-.99,0-1.82.78-1.87,1.77-.05.99.68,1.85,1.67,1.96ZM351.35,239.57l-2.37,21.34-197.26-21.34h199.64Z"/>
            <path class="cls-1" d="M107.25,293.48l237.56,25.27c.07,0,.13.01.2.01.94,0,1.75-.71,1.86-1.67l2.81-25.27c.06-.53-.11-1.06-.47-1.46s-.86-.62-1.39-.62H107.45c-1,0-1.82.78-1.87,1.77-.05.99.68,1.86,1.67,1.96ZM345.73,293.49l-2.37,21.34-200.62-21.34h202.99Z"/>
            <path class="cls-1" d="M319.37,402.26v-2.25c0-1.03-.84-1.87-1.87-1.87H88.35c-.99,0-1.82.78-1.87,1.77-.05.99.68,1.85,1.67,1.96l233.63,25.27c.07,0,.13.01.2.01.59,0,1.16-.28,1.51-.77.39-.54.47-1.25.2-1.86-2.87-6.45-4.33-13.94-4.33-22.26ZM123.07,401.88h192.55v.37c0,7.62,1.16,14.61,3.45,20.83l-196.01-21.2Z"/>
            <path class="cls-1" d="M446.26,349c-8.07-5.11-21.9-7.59-42.28-7.59-22.76,0-40.51,4.46-52.76,13.27-12.44,8.95-18.75,24.95-18.75,47.57,0,10.78,4.19,18.69,12.44,23.52,8.04,4.71,22.22,7,43.35,7,26.57,0,45.13-4.7,55.19-13.98,10.09-9.31,15.2-24.7,15.2-45.74,0-10.74-4.17-18.83-12.38-24.05ZM440.9,416.04c-9.34,8.62-27.05,12.98-52.65,12.98-20.16,0-34.11-2.18-41.46-6.48-7.12-4.17-10.59-10.8-10.59-20.29,0-21.35,5.78-36.33,17.19-44.53,11.6-8.34,28.62-12.57,50.58-12.57,19.38,0,32.93,2.36,40.27,7.01,7.16,4.55,10.65,11.38,10.65,20.88,0,19.95-4.71,34.42-14,42.99Z"/>
          </g>
        </g>
      </g>
    </g>
  </g>
</svg>