<?xml version="1.0" encoding="UTF-8"?>
<svg id="Mongoose_copy_7" data-name="Mongoose copy 7" xmlns="http://www.w3.org/2000/svg" viewBox="0 0 512 512">
  <defs>
    <style>
      .cls-1 {
        fill: #ffd100;
      }

      .cls-2 {
        fill: #231f20;
      }
    </style>
  </defs>
  <path class="cls-1" d="M447.37,46.81c-.57-.24-1.23-.11-1.66.33L48.67,462.7c-.44.44-.57,1.09-.33,1.66.24.57.79.94,1.41.94h397.04c.84,0,1.52-.68,1.52-1.52V48.22c0-.62-.37-1.17-.94-1.41Z"/>
  <g>
    <g>
      <path class="cls-2" d="M48.23,395.78L98.74,108.8h122.14c40.1,0,68.34,7.12,84.72,21.35,16.37,14.23,24.56,36.66,24.56,67.27,0,15.92-1.84,34.29-5.51,55.1-5.82,33.06-14.31,60.15-25.49,81.27-11.18,21.12-26.94,36.73-47.29,46.84-20.36,10.1-47.52,15.15-81.5,15.15H48.23ZM148.33,322.31h36.28c10.1,0,18.44-1.22,25.02-3.67,6.58-2.45,10.94-9.33,13.09-20.66l16.07-91.38c.3-1.53.46-2.83.46-3.9v-3.44c0-7.96-2.83-12.78-8.49-14.46-5.67-1.68-12.94-2.53-21.81-2.53h-36.27l-24.34,140.05Z"/>
      <path class="cls-1" d="M170.37,397.31H48.23c-.45,0-.88-.2-1.17-.55s-.41-.8-.33-1.25L97.23,108.53c.13-.73.76-1.27,1.51-1.27h122.14c40.29,0,69.13,7.31,85.72,21.73,16.65,14.48,25.09,37.5,25.09,68.42,0,15.94-1.86,34.57-5.53,55.37-5.82,33.07-14.45,60.56-25.64,81.72-11.28,21.31-27.42,37.29-47.97,47.49-20.48,10.16-48.13,15.31-82.18,15.31ZM50.05,394.25h120.32c33.58,0,60.77-5.04,80.82-14.99,19.96-9.91,35.65-25.45,46.62-46.18,11.04-20.88,19.57-48.07,25.33-80.82,3.64-20.62,5.49-39.07,5.49-54.83,0-30-8.09-52.24-24.04-66.11-16.02-13.92-44.18-20.98-83.71-20.98h-120.85l-49.97,283.92ZM184.6,323.84h-36.28c-.45,0-.88-.2-1.17-.55-.29-.35-.41-.8-.34-1.25l24.34-140.05c.13-.73.76-1.27,1.51-1.27h36.27c8.96,0,16.44.87,22.24,2.59,6.36,1.9,9.59,7.26,9.59,15.93v3.44c0,1.16-.16,2.53-.49,4.2l-16.06,91.34c-2.25,11.86-6.98,19.2-14.06,21.83-6.71,2.5-15.31,3.77-25.56,3.77ZM150.15,320.78h34.46c9.88,0,18.12-1.2,24.49-3.58,6.01-2.24,10.09-8.8,12.12-19.51l16.07-91.36c.29-1.48.44-2.69.44-3.64v-3.44c0-7.26-2.42-11.51-7.4-13-5.52-1.63-12.71-2.46-21.37-2.46h-34.99l-23.8,136.99Z"/>
    </g>
    <g>
      <path class="cls-2" d="M306.28,375.58c0,7.04,1.22,13.32,3.67,18.83l-191.01-20.66h187.34v1.84ZM322.35,329.2c-5.21,5.21-9.18,11.79-11.94,19.74l-183.67-19.74h195.61ZM328.78,305.78l-194.23-20.66h196.52l-2.3,20.66ZM333.37,261.7l-191.01-20.66h193.31l-2.3,20.66ZM338.42,217.62l-188.26-20.66h190.55l-2.3,20.66ZM343.01,173.54l-185.04-20.66h187.34l-2.3,20.66ZM320.05,375.58c0-18.06,4.89-30.61,14.69-37.65,9.79-7.04,23.88-10.56,42.24-10.56,16.22,0,27.47,1.99,33.75,5.97,6.27,3.98,9.41,10.1,9.41,18.37,0,16.84-3.98,28.93-11.94,36.27-7.96,7.35-22.66,11.02-44.08,11.02-16.84,0-28.4-1.84-34.67-5.51-6.28-3.67-9.41-9.64-9.41-17.91ZM415.1,317.72h-73.93l21.58-196.52c.61-3.37,2.3-6.27,5.05-8.73,2.75-2.45,7.35-3.67,13.78-3.67h67.96c9.48,0,14.23,3.06,14.23,9.18,0,1.54-.16,2.6-.46,3.21l-48.21,196.52Z"/>
      <g>
        <path class="cls-1" d="M149.99,198.48l188.26,20.66c.06,0,.11,0,.17,0,.77,0,1.43-.58,1.52-1.36l2.3-20.66c.05-.43-.09-.87-.38-1.19s-.7-.51-1.14-.51h-190.55c-.81,0-1.48.64-1.53,1.45-.04.81.55,1.52,1.36,1.61ZM339,198.49l-1.94,17.44-158.93-17.44h160.87Z"/>
        <path class="cls-1" d="M157.8,154.4l185.04,20.66c.06,0,.11,0,.17,0,.35,0,.68-.12.96-.34.32-.25.52-.62.57-1.03l2.3-20.66c.05-.43-.09-.87-.38-1.19s-.7-.51-1.14-.51h-187.34c-.81,0-1.48.63-1.53,1.45-.05.81.55,1.52,1.36,1.61ZM343.6,154.41l-1.94,17.44-156.19-17.44h158.13Z"/>
        <path class="cls-1" d="M323.76,328.61c-.24-.57-.79-.94-1.41-.94H126.74c-.81,0-1.48.64-1.53,1.45-.04.81.56,1.52,1.37,1.6l183.67,19.74c.05,0,.11,0,.16,0,.65,0,1.23-.41,1.45-1.03,2.67-7.7,6.56-14.15,11.57-19.16.44-.44.57-1.1.33-1.67ZM309.37,347.29l-154.07-16.56h163.55c-3.95,4.62-7.13,10.18-9.48,16.56Z"/>
        <path class="cls-1" d="M449.54,107.27h-67.96c-6.88,0-11.72,1.33-14.79,4.06-3.01,2.68-4.87,5.91-5.54,9.59,0,.04-.01.07-.02.11l-21.58,196.52c-.05.43.09.86.38,1.19.29.32.7.51,1.14.51h73.93c.7,0,1.32-.48,1.49-1.17l48.18-196.38c.37-.85.54-2.04.54-3.72,0-4.89-2.74-10.71-15.77-10.71ZM461.94,120.52c-.05.1-.09.2-.11.31l-47.93,195.36h-71.02l21.39-194.77c.56-3.02,2.05-5.57,4.55-7.8,2.46-2.18,6.75-3.29,12.76-3.29h67.96c12.7,0,12.7,5.76,12.7,7.65,0,1.79-.23,2.39-.3,2.54Z"/>
        <path class="cls-1" d="M142.19,242.56l191.01,20.66c.06,0,.11,0,.17,0,.77,0,1.43-.58,1.52-1.36l2.3-20.66c.05-.43-.09-.87-.38-1.19s-.7-.51-1.14-.51h-193.31c-.81,0-1.48.64-1.53,1.45-.04.81.56,1.52,1.36,1.6ZM333.95,242.57l-1.94,17.45-161.28-17.45h163.22Z"/>
        <path class="cls-1" d="M134.39,286.64l194.23,20.66c.06,0,.11,0,.16,0,.77,0,1.43-.58,1.52-1.36l2.3-20.66c.05-.43-.09-.87-.38-1.19s-.7-.51-1.14-.51h-196.52c-.81,0-1.49.64-1.53,1.45-.04.81.56,1.52,1.37,1.6ZM329.36,286.65l-1.94,17.45-164.02-17.45h165.96Z"/>
        <path class="cls-1" d="M307.81,375.58v-1.84c0-.85-.69-1.53-1.53-1.53H118.94c-.81,0-1.48.64-1.53,1.45-.04.81.56,1.52,1.36,1.6l191.01,20.66c.05,0,.11,0,.16,0,.49,0,.95-.23,1.24-.63.32-.44.38-1.02.16-1.52-2.35-5.28-3.54-11.4-3.54-18.2ZM147.32,375.27h157.43v.31c0,6.23.95,11.94,2.82,17.03l-160.25-17.33Z"/>
        <path class="cls-1" d="M411.56,332.04c-6.6-4.18-17.9-6.21-34.57-6.21-18.61,0-33.12,3.65-43.14,10.85-10.17,7.31-15.33,20.4-15.33,38.89,0,8.81,3.42,15.28,10.17,19.23,6.57,3.85,18.16,5.72,35.44,5.72,21.72,0,36.9-3.84,45.12-11.43,8.25-7.62,12.43-20.2,12.43-37.4,0-8.78-3.41-15.39-10.13-19.66ZM407.17,386.85c-7.64,7.04-22.12,10.62-43.04,10.62-16.48,0-27.89-1.78-33.89-5.3-5.82-3.41-8.66-8.83-8.66-16.59,0-17.45,4.73-29.7,14.06-36.41,9.48-6.82,23.4-10.27,41.35-10.27,15.84,0,26.92,1.93,32.93,5.73,5.86,3.72,8.7,9.3,8.7,17.07,0,16.31-3.85,28.14-11.45,35.15Z"/>
      </g>
    </g>
  </g>
</svg>
